<?xml version="1.0" encoding="utf-8"?>
<!-- Uploaded to: SVG Repo, www.svgrepo.com, Generator: SVG Repo Mixer Tools -->
<svg fill="#000000" version="1.1" id="Layer_1" xmlns="http://www.w3.org/2000/svg" xmlns:xlink="http://www.w3.org/1999/xlink" 
	 width="800px" height="800px" viewBox="0 0 256 225" enable-background="new 0 0 256 225" xml:space="preserve">
<path d="M186.275,33.057c-8.08-1.86-25.232-5.597-52.765-5.597c-2.428,0-18.184,0-18.184,0l-3.051-3.822
	c-7-8.774-16.387-15.323-27.044-18.847l-7.702-2.554l-0.031,20.92c0,5.202-3.452,9.735-8.434,11.217
	c-8.474,2.523-16.711,6.03-22.008,8.458C19.83,55.316,2,75.078,2,96.265c0,22.796,19.414,40.65,50.038,51.275
	c-0.875,3.712-1.348,7.575-1.348,11.556c0,19.359,10.902,36.173,26.903,44.622c-4.06-9.144-6.314-19.256-6.314-29.905
	c0-27.738,15.292-51.906,37.914-64.518c-2.625-0.425-5.313-0.646-8.056-0.646c-19.516,0-36.424,11.082-44.82,27.297
	c-6.547-2.796-14.693-8.826-14.693-17.115c0-7.812,6.372-12.349,12.62-13.193c34.223-4.62,47.153-6.038,76.152-12.887
	c17.791-4.201,30.914-9.885,39.94-17.672c0.756-0.709,0.576-1.979-0.362-2.435c-6.448-3.121-23.552-3.634-32.854-3.665
	c-0.008,0-0.016-0.008-0.024-0.008c-2.948-0.024-2.711-2.664-1.111-3.665c5.415-3.224,12.25-5.462,19.769-6.827l2.876,5.265
	l6.534-6.274l2.616,8.143l6.779-8.269l3.76,9.427c0-0.008,0.008-0.008,0.008-0.008l6.235-9.506
	c3.515-6.559,5.344-12.667,6.29-16.884C191.572,37.077,189.562,33.813,186.275,33.057z M151.837,41.364h-0.055l-4.541-0.102
	c-1.687-0.032-3.027-1.419-2.995-3.098c0.031-1.663,1.387-2.995,3.051-2.995h0.055l4.541,0.102c1.679,0.032,3.019,1.419,2.987,3.106
	C154.856,40.032,153.5,41.364,151.837,41.364z M254,101.139l-23.49,23.958l-9.028-8.103l8.177-15.833L254,101.139z M148.125,168.342
	c-4.44,1.22-9.211-1.295-10.469-5.809c-1.222-4.44,1.367-9.101,5.827-10.359l3.478-0.961l4.511,16.128L148.125,168.342z
	 M150.862,150.178l28.097-7.917c1.851-0.481,3.718,0.629,4.235,2.48l2.627,9.397c0.519,1.849-0.481,3.735-2.367,4.29l-28.116,7.843
	L150.862,150.178z M146.423,176.887c2.146-2.035,4.809-3.661,7.917-4.513l34.07-9.545l0,0l20.939-37.14
	c1.11-1.924,2.886-3.439,5.179-4.068c4.587-1.295,9.36,1.406,10.618,5.993c0.629,2.182,0.334,4.402-0.666,6.288l-26.191,45.947
	c0,0-2.146,3.439-7.546,5.216l-47.611,13.353l-22.084,22.418c-0.74,0.779-1.701,1.369-2.849,1.703
	c-3.33,0.924-6.807-1.074-7.768-4.366c-0.631-2.33,0.11-4.771,1.775-6.288L146.423,176.887z M120.99,186.173l-4.94,6.474
	l-10.061-10.988l8.489-4.735c-0.814-5.956,2.886-11.728,8.805-13.391c6.51-1.814,13.279,1.96,15.092,8.471
	c1.851,6.548-1.96,13.281-8.471,15.093C126.798,187.985,123.653,187.504,120.99,186.173z"/>
</svg>